#!OML:ASF F:\VICON\USERDATA\INSTALL\rory3\rory3.ASF
:FULLY-SPECIFIED
:DEGREES
893
root 0.76422 9.78446 -7.12617 -32.9801 44.4478 -0.933314
lowerback 31.1153 1.99872 -4.01648
upperback 13.0996 2.09052 -0.53714
thorax -2.25508 1.20656 1.03766
lowerneck -8.62258 -3.40784 -7.89651
upperneck 18.4973 -5.49438 11.5863
head 7.61958 -2.11712 4.65613
rclavicle 4.27387e-015 -1.82882e-014
rhumerus 0.883217 33.7095 -64.5015
rradius 70.3361
rwrist 9.64029
rhand -46.0396 13.2341
rfingers 7.12502
rthumb -18.7838 -15.879
lclavicle 4.27387e-015 -1.82882e-014
lhumerus 7.68298 -32.8761 66.4611
lradius 66.5819
lwrist 10.4724
lhand -27.8972 15.8054
lfingers 7.12502
lthumb -1.28664 45.7812
rfemur -68.0897 -13.2923 10.6051
rtibia 104.329
rfoot -17.4309 -13.5979
rtoes 2.09043
lfemur -66.8058 14.7946 -6.26063
ltibia 102.071
lfoot 7.60231 -11.1609
ltoes -1.0775
894
root 0.769554 9.78895 -7.12563 -33.0801 44.314 -1.1704
lowerback 31.1199 1.94623 -3.74485
upperback 13.0678 2.09736 -0.498459
thorax -2.2915 1.21859 0.92192
lowerneck -8.73452 -3.44129 -7.99111
upperneck 18.5611 -5.51069 11.5086
head 7.6633 -2.13416 4.64467
rclavicle -3.76697e-014 1.82882e-014
rhumerus 0.822503 33.7448 -64.504
rradius 70.4176
rwrist 9.65661
rhand -46.0731 12.5244
rfingers 7.12502
rthumb -18.816 -16.5856
lclavicle -3.76697e-014 1.82882e-014
lhumerus 7.73604 -33.0357 66.307
lradius 66.7202
lwrist 10.4906
lhand -27.8466 15.7926
lfingers 7.12502
lthumb -1.23775 45.7687
rfemur -68.2208 -13.6017 10.8066
rtibia 105.682
rfoot -17.9194 -13.8672
rtoes 2.7577
lfemur -66.9683 15.039 -5.85227
ltibia 102.793
lfoot 7.13094 -11.8686
ltoes -1.43012
895
root 0.778801 9.79018 -7.12389 -33.0749 44.2499 -1.25947
lowerback 31.1168 1.88612 -3.626
upperback 13.0216 2.04889 -0.493637
thorax -2.33978 1.19795 0.873782
lowerneck -8.83896 -3.4519 -8.02298
upperneck 18.6608 -5.48854 11.3288
head 7.70882 -2.13715 4.59217
rclavicle -1.70955e-014 -3.02153e-014
rhumerus 0.787697 33.9052 -64.5234
rradius 70.4653
rwrist 9.71028
rhand -46.2536 12.0969
rfingers 7.12502
rthumb -18.9896 -16.9961
lclavicle -1.70955e-014 -3.02153e-014
lhumerus 7.60349 -33.0948 66.1676
lradius 66.8902
lwrist 10.404
lhand -27.6815 15.6796
lfingers 7.12502
lthumb -1.07829 45.6566
rfemur -68.3527 -14.0173 10.8309
rtibia 107.108
rfoot -18.1115 -14.0511
rtoes 3.29868
lfemur -67.0956 15.2922 -5.6079
ltibia 103.635
lfoot 6.52778 -12.4816
ltoes -1.95569
896
root 0.793214 9.78803 -7.1243 -32.848 44.3624 -1.1446
lowerback 31.0322 1.806 -3.67774
upperback 12.9642 1.92619 -0.563653
thorax -2.3619 1.1359 0.866275
lowerneck -8.90442 -3.44185 -7.98874
upperneck 18.7403 -5.43711 11.0897
head 7.73418 -2.12846 4.51088
rclavicle -2.18663e-015 -3.18055e-015
rhumerus 0.730837 34.0611 -64.6464
rradius 70.5182
rwrist 9.76495
rhand -46.4256 12.0651
rfingers 7.12502
rthumb -19.155 -17.0116
lclavicle -2.18663e-015 -3.18055e-015
lhumerus 7.43642 -33.1079 65.9835
lradius 67.0662
lwrist 10.4011
lhand -27.7436 15.7744
lfingers 7.12502
lthumb -1.13823 45.7511
rfemur -68.5241 -14.7311 10.6246
rtibia 108.633
rfoot -18.2941 -14.1333
rtoes 3.78358
lfemur -67.3251 15.4351 -5.66768
ltibia 104.565
lfoot 5.80771 -12.863
ltoes -2.72318
897
root 0.806667 9.78789 -7.12417 -32.6146 44.4764 -1.05388
lowerback 30.9492 1.77672 -3.70058
upperback 12.9411 1.88316 -0.582115
thorax -2.34986 1.11356 0.874331
lowerneck -9.04311 -3.47203 -8.06832
upperneck 18.7763 -5.43898 10.9717
head 7.77081 -2.14144 4.48349
rclavicle 3.50855e-014 -2.06736e-014
rhumerus 0.721854 34.0625 -64.6257
rradius 70.4923
rwrist 9.7687
rhand -46.372 12.4219
rfingers 7.12502
rthumb -19.1034 -16.66
lclavicle 3.50855e-014 -2.06736e-014
lhumerus 7.50857 -33.2464 65.8131
lradius 67.1676
lwrist 10.4816
lhand -27.9651 15.9542
lfingers 7.12502
lthumb -1.35224 45.9297
rfemur -68.6483 -15.5212 10.4653
rtibia 110.15
rfoot -18.5266 -14.3089
rtoes 3.42517
lfemur -67.538 15.5636 -5.66129
ltibia 105.569
lfoot 5.06675 -13.0284
ltoes -3.02149
898
root 0.817528 9.78902 -7.12224 -32.4414 44.5463 -0.943736
lowerback 30.9861 1.8187 -3.75717
upperback 12.9307 1.92124 -0.554554
thorax -2.38117 1.13036 0.923852
lowerneck -9.21791 -3.55103 -8.15392
upperneck 18.8465 -5.50959 10.8649
head 7.83326 -2.18489 4.45427
rclavicle -3.97569e-016 3.18055e-014
rhumerus 0.781924 34.0749 -64.4223
rradius 70.3847
rwrist 9.7944
rhand -46.274 12.6301
rfingers 7.12502
rthumb -19.0092 -16.4609
lclavicle -3.97569e-016 3.18055e-014
lhumerus 7.68256 -33.448 65.7159
lradius 67.1281
lwrist 10.437
lhand -28.0443 15.9413
lfingers 7.12502
lthumb -1.42871 45.9163
rfemur -68.6345 -16.292 10.3217
rtibia 111.636
rfoot -18.7491 -14.5627
rtoes 2.82574
lfemur -67.597 15.8294 -5.58549
ltibia 106.638
lfoot 4.24673 -13.1971
ltoes -2.88167
899
root 0.825519 9.79452 -7.12206 -32.2745 44.5745 -0.829505
lowerback 31.0254 1.85098 -3.81631
upperback 12.9204 1.94473 -0.537728
thorax -2.41253 1.13985 0.967552
lowerneck -9.40467 -3.63346 -8.27423
upperneck 18.9952 -5.58746 10.7812
head 7.92623 -2.23067 4.43952
rclavicle 3.95581e-014 -5.48646e-014
rhumerus 0.888069 34.131 -64.2355
rradius 70.2853
rwrist 9.829
rhand -46.1057 12.4515
rfingers 7.12502
rthumb -18.8473 -16.6554
lclavicle 3.95581e-014 -5.48646e-014
lhumerus 7.82208 -33.555 65.6441
lradius 66.9467
lwrist 10.2291
lhand -28.0383 15.8297
lfingers 7.12502
lthumb -1.42293 45.8047
rfemur -68.6024 -16.9517 10.1016
rtibia 113.037
rfoot -19.0251 -14.7125
rtoes 3.37975
lfemur -67.5683 16.2256 -5.50948
ltibia 107.72
lfoot 3.29621 -13.4619
ltoes -2.8245
900
root 0.8325 9.80111 -7.12205 -32.1443 44.527 -0.861117
lowerback 30.941 1.83287 -3.77403
upperback 12.921 1.93724 -0.503975
thorax -2.37515 1.13505 0.985287
lowerneck -9.49392 -3.65388 -8.38225
upperneck 19.0541 -5.57924 10.6943
head 7.96202 -2.23938 4.42948
rclavicle 6.07287e-014 2.46493e-014
rhumerus 1.00244 34.1521 -64.1585
rradius 70.176
rwrist 9.84996
rhand -45.9784 12.4967
rfingers 7.12502
rthumb -18.7249 -16.6221
lclavicle 6.07287e-014 2.46493e-014
lhumerus 7.86639 -33.5626 65.5695
lradius 66.7692
lwrist 10.051
lhand -28.0729 15.5951
lfingers 7.12502
lthumb -1.45636 45.5699
rfemur -68.691 -17.4733 9.94534
rtibia 114.327
rfoot -19.2543 -14.8033
rtoes 4.66872
lfemur -67.5806 16.6403 -5.2676
ltibia 108.789
lfoot 2.51538 -13.7852
ltoes -1.90231
901
root 0.839446 9.80498 -7.12038 -31.9956 44.4188 -0.997974
lowerback 30.7629 1.78418 -3.67507
upperback 12.9297 1.90905 -0.472877
thorax -2.28568 1.12056 0.976748
lowerneck -9.55684 -3.59836 -8.28043
upperneck 18.9961 -5.46747 10.4663
head 7.93363 -2.19937 4.34368
rclavicle -1.60022e-014 4.6118e-014
rhumerus 1.1125 34.178 -64.1606
rradius 70.0731
rwrist 9.90281
rhand -45.9621 12.6583
rfingers 7.12502
rthumb -18.7093 -16.4619
lclavicle -1.60022e-014 4.6118e-014
lhumerus 7.93565 -33.5114 65.4204
lradius 66.5802
lwrist 10.008
lhand -27.9775 15.2597
lfingers 7.12502
lthumb -1.36419 45.235
rfemur -68.9053 -18.0254 9.95742
rtibia 115.635
rfoot -19.2817 -14.9806
rtoes 5.71977
lfemur -67.7058 17.0694 -4.77792
ltibia 109.887
lfoot 2.31356 -14.21
ltoes 1.14469
902
root 0.819694 9.84837 -7.13872 -31.6521 44.3876 -0.962506
lowerback 30.6364 1.77773 -3.66406
upperback 12.8781 1.90019 -0.517748
thorax -2.28698 1.116 0.925848
lowerneck -9.6847 -3.59793 -8.15004
upperneck 19.0459 -5.44636 10.2679
head 7.9626 -2.19408 4.25541
rclavicle 6.6891e-014 4.77083e-015
rhumerus 1.04064 34.163 -64.2615
rradius 70.036
rwrist 9.77828
rhand -45.8366 12.2591
rfingers 7.12502
rthumb -18.5885 -16.8728
lclavicle 6.6891e-014 4.77083e-015
lhumerus 8.04782 -33.6184 65.2315
lradius 66.3739
lwrist 10.0862
lhand -28.0054 15.3413
lfingers 7.12502
lthumb -1.39109 45.3165
rfemur -68.8739 -18.5035 9.93638
rtibia 116.617
rfoot -18.923 -15.4291
rtoes 5.50193
lfemur -67.519 17.3777 -4.51652
ltibia 110.627
lfoot 2.11697 -14.5085
ltoes 2.69921
903
root 0.822054 9.85525 -7.13605 -31.3444 44.4528 -0.83802
lowerback 30.6898 1.82495 -3.73811
upperback 12.8019 1.93026 -0.553897
thorax -2.39851 1.13014 0.915793
lowerneck -9.71531 -3.65984 -8.21861
upperneck 19.1391 -5.5254 10.2746
head 8.00944 -2.23355 4.26268
rclavicle 1.66979e-014 -2.70347e-014
rhumerus 0.85865 34.0114 -64.4086
rradius 69.8896
rwrist 9.57365
rhand -45.7041 11.8349
rfingers 7.12502
rthumb -18.4611 -17.3091
lclavicle 1.66979e-014 -2.70347e-014
lhumerus 8.08996 -33.8826 65.1301
lradius 66.2073
lwrist 10.3663
lhand -28.0881 15.6539
lfingers 7.12502
lthumb -1.47099 45.6286
rfemur -68.9972 -19.1852 9.6334
rtibia 117.809
rfoot -18.82 -15.6763
rtoes 6.13009
lfemur -67.3793 17.7886 -4.49147
ltibia 111.567
lfoot 1.3185 -14.9044
ltoes 0.128344
